# xmcd
#
# Track frame offsets:
# 150
# 25533
# 48441
# 67022
# 88979
# 111692
# 133907
#
# Disc length: 2031 seconds
#
# Revision: 0
# Processed by: cddbd v1.5.1PL0 Copyright (c) Steve Scherf et al.
# Submitted via: Audion 3.0.2 (http://www.panic.com/audion/)
#
DISCID=6707ed07
DTITLE=Various Artist - va
DYEAR=1900
DGENRE=
TTITLE0=One Monkey
TTITLE1=I Made A Lovers Prayer
TTITLE2=Hard Times In Babylon
TTITLE3=Persephone
TTITLE4=Sanctuary
TTITLE5=Arlington
TTITLE6=Bleubird
EXTD=
EXTT0=
EXTT1=
EXTT2=
EXTT3=
EXTT4=
EXTT5=
EXTT6=
PLAYORDER=
